# xmcd CD database file
# Copyright (C) 1997 Ti Kan
# 
# Track frame offsets:
#     150
#     13420
#     29465
#     42040
#     51757
#     64972
#     78355
#     89420
#     101907
#     115290
#     129987
#     143417
#     157130
#     169627
#     183222
#     193257
#     206537
#     218907
#     236172
#     249652
# 
# Disc length: 3539 seconds
# 
# Revision: 1
# Processed by: cddbd v1.4b41PL1 Copyright (c) Steve Scherf et al.
# Submitted via: DiscPlay 4.0.3
# 
DISCID=210dd114
DTITLE=Ansambel bratov Avsenik - 40 let hitov 1
DYEAR=1900
DGENRE=
TTITLE0=Veseli svatje
TTITLE1=Klic z gora
TTITLE2=Gasilska polka
TTITLE3=Moj rodni kraj, moj rodni dom
TTITLE4=V planinski ko i
TTITLE5=Na mostu
TTITLE6=Na Robleku
TTITLE7=Prelepa Gorenjska
TTITLE8=Jaz sem pa en Franc Ko ir
TTITLE9=Pastir ek
TTITLE10=Pri Jo ovcu
TTITLE11=Tihi studen ek
TTITLE12=Dobro jutro, stri ek Janez
TTITLE13=Kadar bom vandral
TTITLE14=Na Smoku ki planini
TTITLE15=Odmev s Triglava
TTITLE16=Zjutraj pa domov
TTITLE17=Slovenija, od kod lepote tvoje
TTITLE18=akala bom
TTITLE19=Lovska kora nica
EXTD=
EXTT0=
EXTT1=
EXTT2=
EXTT3=
EXTT4=
EXTT5=
EXTT6=
EXTT7=
EXTT8=
EXTT9=
EXTT10=
EXTT11=
EXTT12=
EXTT13=
EXTT14=
EXTT15=
EXTT16=
EXTT17=
EXTT18=
EXTT19=
PLAYORDER=
